HIERARCHY
ROOT joint_Root
{
  OFFSET 0.0 0.0 0.0
  CHANNELS 6 Xposition Yposition Zposition Zrotation Xrotation Yrotation
  JOINT Hips
  {
    OFFSET 0.0 0.0 0.0
    CHANNELS 6 Xposition Yposition Zposition Zrotation Xrotation Yrotation
    JOINT Spine
    {
      OFFSET 2.924741268 0.0 0.0
      CHANNELS 6 Xposition Yposition Zposition Zrotation Xrotation Yrotation
      JOINT Chest
      {
        OFFSET 1.669928074 -0.075500324 0.0
        CHANNELS 6 Xposition Yposition Zposition Zrotation Xrotation Yrotation
        JOINT Neck
        {
          OFFSET 3.043993473 0.0 0.0
          CHANNELS 6 Xposition Yposition Zposition Zrotation Xrotation Yrotation
          JOINT Head
          {
            OFFSET 1.200088739 0.0 0.0
            CHANNELS 6 Xposition Yposition Zposition Zrotation Xrotation Yrotation
            End Site
            {
              OFFSET 0.0 0.0 0.0
            }
          }
        }
        JOINT Shoulder_L
        {
          OFFSET 2.415188074 -0.045112804 0.925688267
          CHANNELS 6 Xposition Yposition Zposition Zrotation Xrotation Yrotation
          JOINT UpperArm_L
          {
            OFFSET 0.994031489 0.0 0.0
            CHANNELS 6 Xposition Yposition Zposition Zrotation Xrotation Yrotation
            JOINT LowerArm_L
            {
              OFFSET 4.521874905 3.476e-06 0.0
              CHANNELS 6 Xposition Yposition Zposition Zrotation Xrotation Yrotation
              JOINT Hand_L
              {
                OFFSET 4.143264294 0.0 0.0
                CHANNELS 6 Xposition Yposition Zposition Zrotation Xrotation Yrotation
                End Site
                {
                  OFFSET 0.0 0.0 0.0
                }
              }
            }
          }
        }
        JOINT Shoulder_R
        {
          OFFSET 2.415243864 -0.045112804 -0.925688267
          CHANNELS 6 Xposition Yposition Zposition Zrotation Xrotation Yrotation
          JOINT UpperArm_R
          {
            OFFSET -0.994038939 0.0 0.0
            CHANNELS 6 Xposition Yposition Zposition Zrotation Xrotation Yrotation
            JOINT LowerArm_R
            {
              OFFSET -4.521930218 5.9886e-05 0.0
              CHANNELS 6 Xposition Yposition Zposition Zrotation Xrotation Yrotation
              JOINT Hand_R
              {
                OFFSET -4.143245697 -2.0089e-05 0.0
                CHANNELS 6 Xposition Yposition Zposition Zrotation Xrotation Yrotation
                End Site
                {
                  OFFSET 0.0 0.0 0.0
                }
              }
            }
          }
        }
      }
    }
    JOINT UpperLeg_L
    {
      OFFSET -0.40750888 -1.202453017 0.0
      CHANNELS 6 Xposition Yposition Zposition Zrotation Xrotation Yrotation
      JOINT LowerLeg_L
      {
        OFFSET 7.263872147 0.0 -2.301e-06
        CHANNELS 6 Xposition Yposition Zposition Zrotation Xrotation Yrotation
        JOINT Foot_L
        {
          OFFSET 7.617818356 0.0 -2.358e-06
          CHANNELS 6 Xposition Yposition Zposition Zrotation Xrotation Yrotation
          JOINT Toes_L
          {
            OFFSET 2.184732199 0.0 0.0
            CHANNELS 6 Xposition Yposition Zposition Zrotation Xrotation Yrotation
            End Site
            {
              OFFSET 0.0 0.0 0.0
            }
          }
        }
      }
    }
    JOINT UpperLeg_R
    {
      OFFSET -0.407514423 1.202453017 0.0
      CHANNELS 6 Xposition Yposition Zposition Zrotation Xrotation Yrotation
      JOINT LowerLeg_R
      {
        OFFSET -7.263872147 -0.00042406 -0.0074705
        CHANNELS 6 Xposition Yposition Zposition Zrotation Xrotation Yrotation
        JOINT Foot_R
        {
          OFFSET -7.617818356 0.0 0.0
          CHANNELS 6 Xposition Yposition Zposition Zrotation Xrotation Yrotation
          JOINT Toes_R
          {
            OFFSET -2.184732199 0.0 0.0
            CHANNELS 6 Xposition Yposition Zposition Zrotation Xrotation Yrotation
            End Site
            {
              OFFSET 0.0 0.0 0.0
            }
          }
        }
      }
    }
  }
}
MOTION
Frames: 8
Frame Time: 0.0333333
0.0 0.0 0.0 -0.0 0.0 -0.0 0.0 0.0 0.0 85.439704895 4.221490383 1.98804009 2.924741268 0.0 0.0 92.075714111 88.027618408 -90.829299927 1.669928074 -0.075500324 0.0 -3.822519779 0.016750205 2.494370222 3.043993473 0.0 0.0 -6.571780205 -2.271379948 -1.579740047 1.200088739 0.0 0.0 3.990849733 -4.076379299 -1.201969862 2.415188074 -0.045112804 0.925688267 -90.244316101 1.416850328 -95.223114014 0.994031489 0.0 0.0 -77.284301758 -9.969961166 -9.662489891 4.521874905 3.476e-06 0.0 5.524059772 12.453499794 -24.150501251 4.143264294 0.0 0.0 26.735898972 5.311718941 -0.261440903 2.415243864 -0.045112804 -0.925688267 89.039596558 4.997283936 -94.107810974 -0.994038939 0.0 0.0 -65.82699585 -18.426595688 19.556196213 -4.521930218 5.9886e-05 0.0 0.269479036 3.173040152 -4.873970509 -4.143245697 -2.0089e-05 0.0 24.282304764 5.452260017 -4.717550755 -0.40750888 -1.202453017 0.0 -175.367996216 3.601800442 -17.007299423 7.263872147 0.0 -2.301e-06 -0.376193017 0.125777006 70.661506653 7.617818356 0.0 -2.358e-06 2.313700199 -4.609789371 -34.579902649 2.184732199 0.0 0.0 0.433328003 -0.524366081 -21.534902573 -0.407514423 1.202453017 0.0 -168.026000977 6.005689621 162.432998657 -7.263872147 -0.00042406 -0.0074705 0.074400999 -0.069600999 30.411998749 -7.617818356 0.0 0.0 5.982570171 -11.988500595 -62.376708984 -2.184732199 0.0 0.0 0.017950401 -0.018615497 -16.717802048 
0.0 0.0 0.0 -0.0 0.0 -0.0 0.0 0.0 0.0 86.411705017 3.584290028 2.031050205 2.924741268 0.0 0.0 104.75995636 87.788482666 -103.888885498 1.669928074 -0.075500324 0.0 -3.496829271 1.040670037 1.773249745 3.043993473 0.0 0.0 -6.492339134 -2.286519527 -1.34608984 1.200088739 0.0 0.0 3.988369942 -4.620008945 -1.300669909 2.415188074 -0.045112804 0.925688267 -90.226501465 1.289370298 -95.031188965 0.994031489 0.0 0.0 -77.741210938 -10.716900826 -6.524720669 4.521874905 3.476e-06 0.0 3.90874052 11.35710144 -19.130403519 4.143264294 0.0 0.0 24.645401001 5.307789803 -0.147040993 2.415243864 -0.045112804 -0.925688267 89.140602112 4.757339954 -94.747200012 -0.994038939 0.0 0.0 -67.067993164 -17.312597275 15.262300491 -4.521930218 5.9886e-05 0.0 0.415480942 2.912740231 -8.143831253 -4.143245697 -2.0089e-05 0.0 25.43229866 5.469979286 -5.368729591 -0.40750888 -1.202453017 0.0 -176.977005005 4.500538826 -22.325298309 7.263872147 0.0 -2.301e-06 -0.473471135 0.149792016 71.656707764 7.617818356 0.0 -2.358e-06 5.880899429 -8.816349983 -39.789798737 2.184732199 0.0 0.0 0.450710058 -0.547440112 -21.745199203 -0.407514423 1.202453017 0.0 -169.166000366 5.709858894 166.25 -7.263872147 -0.00042406 -0.0074705 0.073215291 -0.074504003 28.64740181 -7.617818356 0.0 0.0 5.513239861 -11.804599762 -64.238800049 -2.184732199 0.0 0.0 0.00195899 -0.00203268 -16.589597702 
0.0 0.0 0.0 -0.0 0.0 -0.0 0.0 0.0 0.0 87.758102417 2.556819677 1.7549299 2.924741268 0.0 0.0 115.138084412 87.524169922 -114.791030884 1.669928074 -0.075500324 0.0 -3.290349483 2.069060087 0.75305593 3.043993473 0.0 0.0 -6.505300522 -2.126340389 -1.095910072 1.200088739 0.0 0.0 3.909070015 -4.920110703 -1.293260098 2.415188074 -0.045112804 0.925688267 -90.203018188 1.110195518 -94.633598328 0.994031489 0.0 0.0 -77.706893921 -12.233099937 -2.64633894 4.521874905 3.476e-06 0.0 2.642809868 9.804240227 -15.164097786 4.143264294 0.0 0.0 22.72810173 5.301310539 0.035551444 2.415243864 -0.045112804 -0.925688267 89.274597168 4.355289936 -95.533912659 -0.994038939 0.0 0.0 -68.114402771 -16.448200226 10.924301147 -4.521930218 5.9886e-05 0.0 0.562698126 2.721740246 -11.706102371 -4.143245697 -2.0089e-05 0.0 26.237298965 5.473129749 -5.487709999 -0.40750888 -1.202453017 0.0 -178.619003296 4.747931004 -26.560400009 7.263872147 0.0 -2.301e-06 -0.465416044 0.179795966 68.308303833 7.617818356 0.0 -2.358e-06 8.340619087 -12.481599808 -43.269496918 2.184732199 0.0 0.0 0.441592962 -0.535315931 -21.634799957 -0.407514423 1.202453017 0.0 -170.79699707 5.717669487 169.972000122 -7.263872147 -0.00042406 -0.0074705 0.070837297 -0.084726907 26.279899597 -7.617818356 0.0 0.0 5.220389843 -10.751200676 -65.704910278 -2.184732199 0.0 0.0 0.00930573 -0.009649049 -16.648498535 
0.0 0.0 0.0 -0.0 0.0 -0.0 0.0 0.0 0.0 88.865600586 1.780470133 1.238630176 2.924741268 0.0 0.0 121.454879761 87.350624084 -121.507888794 1.669928074 -0.075500324 0.0 -3.246550322 2.768780231 -0.027015688 3.043993473 0.0 0.0 -6.525669575 -1.910979986 -1.049559832 1.200088739 0.0 0.0 3.735970497 -5.043670177 -1.354959846 2.415188074 -0.045112804 0.925688267 -90.220191956 1.163891315 -94.291816711 0.994031489 0.0 0.0 -76.988685608 -14.744897842 1.971389174 4.521874905 3.476e-06 0.0 1.871230006 8.687190056 -12.203199387 4.143264294 0.0 0.0 21.402700424 5.30479002 -0.062656067 2.415243864 -0.045112804 -0.925688267 89.429801941 3.708167315 -96.252616882 -0.994038939 0.0 0.0 -68.942687988 -16.225799561 6.498240471 -4.521930218 5.9886e-05 0.0 0.770666003 2.879630089 -15.005203247 -4.143245697 -2.0089e-05 0.0 27.169301987 5.479960918 -5.744860172 -0.40750888 -1.202453017 0.0 -179.587997437 5.203209877 -29.638599396 7.263872147 0.0 -2.301e-06 -0.378513008 0.199449986 61.205394745 7.617818356 0.0 -2.358e-06 8.929722786 -13.552600861 -46.040904999 2.184732199 0.0 0.0 0.452203035 -0.549450994 -21.763496399 -0.407514423 1.202453017 0.0 -172.326004028 6.759809494 173.507995605 -7.263872147 -0.00042406 -0.0074705 0.044729106 -0.047981109 23.419801712 -7.617818356 0.0 0.0 5.079659939 -9.030488968 -66.872390747 -2.184732199 0.0 0.0 0.011043301 -0.011451402 -16.662399292 
0.0 0.0 0.0 -0.0 0.0 -0.0 0.0 0.0 0.0 89.336196899 0.959262967 0.485632062 2.924741268 0.0 0.0 127.435119629 87.263122559 -127.665031433 1.669928074 -0.075500324 0.0 -3.41566968 3.347959757 -0.360715002 3.043993473 0.0 0.0 -6.667748928 -1.712159872 -0.962407947 1.200088739 0.0 0.0 3.597819805 -5.033169746 -1.530779719 2.415188074 -0.045112804 0.925688267 -90.263092041 1.334920764 -93.850402832 0.994031489 0.0 0.0 -75.373596191 -17.768001556 7.178009033 4.521874905 3.476e-06 0.0 1.43148005 8.014069557 -10.161298752 4.143264294 0.0 0.0 20.250902176 5.312060356 -0.26967895 2.415243864 -0.045112804 -0.925688267 89.542297363 3.112449646 -96.630805969 -0.994038939 0.0 0.0 -69.544174194 -15.965596199 1.86259985 -4.521930218 5.9886e-05 0.0 0.968597114 3.045099974 -17.670099258 -4.143245697 -2.0089e-05 0.0 28.507598877 5.483299255 -5.876009464 -0.40750888 -1.202453017 0.0 -179.628005981 5.233340263 -31.066507339 7.263872147 0.0 -2.301e-06 -0.241672993 0.190708995 50.271705627 7.617818356 0.0 -2.358e-06 7.98443079 -13.163199425 -48.963001251 2.184732199 0.0 0.0 0.436524957 -0.528600991 -21.573497772 -0.407514423 1.202453017 0.0 -172.981994629 6.309229851 176.783004761 -7.263872147 -0.00042406 -0.0074705 0.009679351 0.024059299 20.190700531 -7.617818356 0.0 0.0 4.767909527 -8.928509712 -67.574401855 -2.184732199 0.0 0.0 -0.046923902 0.034201801 -16.573202133 
0.0 0.0 0.0 -0.0 0.0 -0.0 0.0 0.0 0.0 89.212898254 -0.46222207 -0.227371022 2.924741268 0.0 0.0 134.242950439 87.083221436 -134.469940186 1.669928074 -0.075500324 0.0 -3.583410025 4.090120316 -0.326175988 3.043993473 0.0 0.0 -7.006890297 -1.367360115 -0.878112078 1.200088739 0.0 0.0 3.49614954 -5.008359432 -1.623459816 2.415188074 -0.045112804 0.925688267 -90.373809814 1.798793554 -93.260002136 0.994031489 0.0 0.0 -72.497901917 -20.736000061 12.866999626 4.521874905 3.476e-06 0.0 1.138400078 7.476179123 -8.68173027 4.143264294 0.0 0.0 19.514099121 5.318749905 -0.460159928 2.415243864 -0.045112804 -0.925688267 89.590705872 2.907098293 -96.983505249 -0.994038939 0.0 0.0 -69.775802612 -15.988100052 -2.632450104 -4.521930218 5.9886e-05 0.0 1.360919952 3.744320393 -20.003602982 -4.143245697 -2.0089e-05 0.0 29.264795303 5.479230404 -5.718190193 -0.40750888 -1.202453017 0.0 -179.195999146 4.020229816 -30.105100632 7.263872147 0.0 -2.301e-06 -0.119038992 0.157694981 35.306697845 7.617818356 0.0 -2.358e-06 6.953149796 -11.979298592 -50.610298157 2.184732199 0.0 0.0 0.43939504 -0.532414973 -21.608297348 -0.407514423 1.202453017 0.0 -172.87600708 4.965249538 -179.796005249 -7.263872147 -0.00042406 -0.0074705 0.001990051 0.038732804 16.792699814 -7.617818356 0.0 0.0 5.63492012 -9.493301392 -68.002410889 -2.184732199 0.0 0.0 0.0159493 -0.016542301 -16.701799393 
0.0 0.0 0.0 -0.0 0.0 -0.0 0.0 0.0 0.0 88.613998413 -2.190550089 -0.58940202 2.924741268 0.0 0.0 139.691864014 86.809593201 -139.723815918 1.669928074 -0.075500324 0.0 -3.643540144 4.866140366 0.092395782 3.043993473 0.0 0.0 -7.175180435 -0.889334917 -0.831875086 1.200088739 0.0 0.0 3.277769804 -4.95609045 -1.793149829 2.415188074 -0.045112804 0.925688267 -90.508705139 2.292890072 -92.489105225 0.994031489 0.0 0.0 -68.918106079 -23.39689827 18.643699646 4.521874905 3.476e-06 0.0 0.915860057 7.198140144 -7.270589828 4.143264294 0.0 0.0 19.234600067 5.314040184 -0.324666977 2.415243864 -0.045112804 -0.925688267 89.650001526 2.677965164 -97.551696777 -0.994038939 0.0 0.0 -70.105911255 -16.131002426 -6.575771332 -4.521930218 5.9886e-05 0.0 1.601510167 3.988400221 -21.911701202 -4.143245697 -2.0089e-05 0.0 30.381999969 5.486780643 -6.007510662 -0.40750888 -1.202453017 0.0 -178.619003296 1.809190154 -26.089998245 7.263872147 0.0 -2.301e-06 -0.041319098 0.109589994 16.805999756 7.617818356 0.0 -2.358e-06 5.502510071 -8.425779343 -51.761505127 2.184732199 0.0 0.0 0.430359989 -0.520430982 -21.499002457 -0.407514423 1.202453017 0.0 -172.537002563 4.430181026 -177.154998779 -7.263872147 -0.00042406 -0.0074705 0.029367896 -0.058981992 15.800397873 -7.617818356 0.0 0.0 7.018619537 -8.787870407 -68.318000793 -2.184732199 0.0 0.0 -0.137915999 -0.411745012 -17.770200729 
0.0 0.0 0.0 -0.0 0.0 -0.0 0.0 0.0 0.0 87.834396362 -3.663559914 -0.756241024 2.924741268 0.0 0.0 143.702880859 86.548103333 -143.45993042 1.669928074 -0.075500324 0.0 -3.699430227 5.536519527 0.665169001 3.043993473 0.0 0.0 -7.133069992 -0.472979933 -0.872759938 1.200088739 0.0 0.0 3.038550138 -4.994399548 -1.825020194 2.415188074 -0.045112804 0.925688267 -90.504997253 2.14000988 -91.718399048 0.994031489 0.0 0.0 -65.686103821 -25.666000366 23.849000931 4.521874905 3.476e-06 0.0 0.702204049 7.006380558 -5.736549854 4.143264294 0.0 0.0 19.598402023 5.301690578 0.024395613 2.415243864 -0.045112804 -0.925688267 89.743896484 2.092215538 -98.019996643 -0.994038939 0.0 0.0 -70.570793152 -15.406798363 -9.659607887 -4.521930218 5.9886e-05 0.0 1.916850328 4.416689873 -23.500904083 -4.143245697 -2.0089e-05 0.0 31.598203659 5.487370491 -6.035181046 -0.40750888 -1.202453017 0.0 -178.257003784 -0.506140947 -24.346197128 7.263872147 0.0 -2.301e-06 -0.00197151 0.006875791 5.713469982 7.617818356 0.0 -2.358e-06 3.106280327 -3.554169893 -55.854000092 2.184732199 0.0 0.0 0.428616971 -0.518147945 -21.47810173 -0.407514423 1.202453017 0.0 -172.26499939 3.601209641 -175.48500061 -7.263872147 -0.00042406 -0.0074705 0.054250594 -0.119977996 17.77179718 -7.617818356 0.0 0.0 6.259078979 -8.165449142 -69.5677948 -2.184732199 0.0 0.0 -0.470535964 -1.164680004 -19.882598877 
